<svg xmlns="http://www.w3.org/2000/svg" viewBox="0 0 224.52 448">
  <title>Asset 3</title>
  <g id="Layer_2" data-name="Layer 2">
    <g id="Capa_1" data-name="Capa 1">
      <path d="M192.15,257.09V80.19A80.05,80.05,0,0,0,112.09,0c-44.28,0-80,34.5-80,78.78V256C12.38,276.26,0,305.28,0,335.81a112.26,112.26,0,1,0,192.15-78.72ZM112.26,416A80.32,80.32,0,0,1,32,335.81c0-21.19,8.62-42.67,23-57.47L64.13,269V78.78c0-26.23,21.07-46.78,48-46.78a48.18,48.18,0,0,1,48.05,48.19v190l9.14,9.33a80.11,80.11,0,0,1-57,136.52Z"/>
      <g>
        <circle cx="112.26" cy="335.33" r="48"/>
        <rect id="fasz" x="96.26" y="207.67" width="32" height="85.58"/>
      </g>
    </g>
  </g>
</svg>